P2
10 10
255
0 28 56 85 113 141 170 198 226 255
0 28 56 85 113 141 170 198 226 255
0 28 56 85 113 141 170 198 226 255
0 28 56 85 113 141 170 198 226 255
0 28 56 85 113 141 170 198 226 255
0 28 56 85 113 141 170 198 226 255
0 28 56 85 113 141 170 198 226 255
0 28 56 85 113 141 170 198 226 255
0 28 56 85 113 141 170 198 226 255
0 28 56 85 113 141 170 198 226 255
